# AST/ASF file generated using VICON BodyLanguage
# -----------------------------------------------
:version 1.10
:name VICON
:units
  mass 1.0
  length 0.45
  angle deg
:documentation
   .ast/.asf automatically generated from VICON data using
   VICON BodyBuilder and BodyLanguage model FoxedUp or BRILLIANT.MOD
:root
   order TX TY TZ RX RY RZ
   axis XYZ
   position 0 0 0  
   orientation 0 0 0 
:bonedata
  begin
     id 1 
     name lhipjoint
     direction 0.621036 -0.695554 0.361275 
     length 2.46325 
     axis 0 0 0  XYZ
  end
  begin
     id 2 
     name lfemur
     direction 0.34202 -0.939693 0  
     length 6.54784  
     axis 0 0 20  XYZ
    dof rx ry rz
    limits (-160.0 20.0)
           (-70.0 70.0)
           (-60.0 70.0)
  end
  begin
     id 3 
     name ltibia
     direction 0.34202 -0.939693 0   
     length 7.84737   
     axis 0 0 20   XYZ
    dof rx
    limits (-10.0 170.0)
  end
  begin
     id 4 
     name lfoot
     direction 0.0790693 -0.217241 0.97291   
     length 2.59747   
     axis -90 7.62852e-016 20   XYZ
    dof rx rz
    limits (-45.0 90.0)
           (-70.0 20.0)
  end
  begin
     id 5 
     name ltoes
     direction 1.53572e-011 -4.21898e-011 1   
     length 1.29919   
     axis -90 7.62852e-016 20   XYZ
    dof rx
    limits (-90.0 20.0)
  end
  begin
     id 6 
     name rhipjoint
     direction -0.602353 -0.708375 0.367935   
     length 2.41867  
     axis 0 0 0  XYZ 
  end
  begin
     id 7 
     name rfemur
     direction -0.34202 -0.939693 0   
     length 6.92065   
     axis 0 0 -20   XYZ
    dof rx ry rz
    limits (-160.0 20.0)
           (-70.0 70.0)
           (-70.0 60.0)
  end
  begin
     id 8 
     name rtibia
     direction -0.34202 -0.939693 0   
     length 7.88883   
     axis 0 0 -20   XYZ
    dof rx
    limits (-10.0 170.0)
 end
 begin
     id 9 
     name rfoot
     direction -0.0768692 -0.211196 0.974416   
     length 2.43714  
     axis -90 -7.62852e-016 -20   XYZ
    dof rx rz
    limits (-45.0 90.0)
           (-20.0 70.0)
  end
  begin
     id 10 
     name rtoes
     direction -1.53575e-011 -4.21933e-011 1   
     length 1.22113   
     axis -90 -7.62852e-016 -20   XYZ
    dof rx
    limits (-90.0 20.0)
  end
  begin
     id 11 
     name lowerback
     direction 0.0197937 0.98943 -0.143655   
     length 2.16931   
     axis 0 0 0   XYZ
    dof rx ry rz
    limits (-20.0 45.0)
           (-30.0 30.0)
           (-30.0 30.0)
  end
  begin
     id 12 
     name upperback
     direction -0.00183968 0.999975 0.00684288   
     length 2.17221   
     axis 0 0 0   XYZ
    dof rx ry rz
    limits (-20.0 45.0)
           (-30.0 30.0)
           (-30.0 30.0)
  end
  begin
     id 13 
     name thorax
     direction -0.00950244 0.997208 0.0740685   
     length 2.22549   
     axis 0 0 0   XYZ
    dof rx ry rz
    limits (-20.0 45.0)
           (-30.0 30.0)
           (-30.0 30.0)
  end
  begin
     id 14 
     name lowerneck
     direction 0.0218238 0.996215 0.0841425   
     length 1.77269   
     axis 0 0 0   XYZ
    dof rx ry rz
    limits (-20.0 45.0)
           (-30.0 30.0)
           (-30.0 30.0)
  end
  begin
     id 15 
     name upperneck
     direction -0.00430652 0.994214 -0.107332   
     length 1.76534   
     axis 0 0 0   XYZ
    dof rx ry rz
    limits (-20.0 45.0)
           (-30.0 30.0)
           (-30.0 30.0)
  end
  begin
     id 16
     name head
     direction -0.00328946 0.998959 -0.0454998  
     length 1.82634  
     axis 0 0 0   XYZ
    dof rx ry rz
    limits (-20.0 45.0)
           (-30.0 30.0)
           (-30.0 30.0)
  end
  begin
     id 17 
     name lclavicle
     direction 0.970962 0.239191 0.00450212  
     length 3.84872  
     axis 0 0 0   XYZ
    dof ry rz
    limits (-20.0 10.0)
           (0.0 20.0)
  end
  begin
     id 18 
     name lhumerus
     direction 1 -4.48966e-011 5.74696e-028   
     length 5.22771   
     axis 180 -30 -90   XYZ
    dof rx ry rz
    limits (-60.0 90.0)
           (-90.0 90.0)
           (-90.0 90.0)
  end
  begin
     id 19
     name lradius
     direction 1 -4.4896e-011 4.25109e-027   
     length 3.45251   
     axis 180 -30 -90   XYZ
    dof rx
    limits (-10.0 170.0)
  end
  begin
     id 20
     name lwrist
     direction 1 -4.48971e-011 1.15382e-027   
     length 1.72626   
     axis -5.52449e-016 90 90   XYZ
    dof ry
    limits (-180.0 0.0)
 end
  begin
     id 21 
     name lhand
     direction 1 -4.49034e-011 2.30765e-027   
     length 0.552119   
     axis -1.47248e-015 90 90   XYZ
    dof rx rz
    limits (-90.0 90.0)
           (-45.0 45.0)
  end
  begin
     id 22 
     name lfingers
     direction 1 -4.48951e-011 4.61529e-027   
     length 0.445133   
     axis -2.94495e-015 90 90   XYZ
    dof rx
    limits (0.0 90.0)
  end
  begin
     id 23
     name lthumb
     direction 0.707107 -6.34991e-011 0.707107   
     length 0.639124   
     axis -90 45 2.85299e-015   XYZ
    dof rx rz
    limits (-45.0 45.0)
           (-45.0 45.0)
  end
  begin
     id 24 
     name rclavicle
     direction -0.97424 0.222511 -0.0366699   
     length 3.73439  
     axis 0 0 0   XYZ 
    dof ry rz
    limits (-10.0 20.0)
           (-20.0 0.0)
  end
  begin
     id 25 
     name rhumerus
     direction -1 -4.48956e-011 -4.97258e-028  
     length 5.2398   
     axis 180 30 90   XYZ
    dof rx ry rz
    limits (-90.0 60.0)
           (-90.0 90.0)
           (-90.0 90.0)
  end
  begin
     id 26 
     name rradius
     direction -1 -4.4897e-011 -1.72611e-027   
     length 3.48042   
     axis 180 30 90   XYZ
    dof rx
    limits (-10.0 170.0)
  end
  begin
     id 27 
     name rwrist
     direction -1 -4.48976e-011 1.15382e-027   
     length 1.74021   
     axis -5.52449e-016 -90 -90   XYZ
    dof ry
    limits (-180.0 0.0)
  end
  begin
     id 28
     name rhand
     direction -1 -4.48963e-011 2.30765e-027   
     length 0.618713   
     axis -1.47248e-015 -90 -90   XYZ
    dof rx rz
    limits (-90.0 90.0)
           (-45.0 45.0)
  end
  begin
     id 29
     name rfingers
     direction -1 -4.4888e-011 4.61529e-027   
     length 0.498823   
     axis -2.94495e-015 -90 -90   XYZ
    dof rx
    limits (0.0 90.0)
  end
  begin
     id 30
     name rthumb
     direction -0.707107 -6.34968e-011 0.707107   
     length 0.716213   
     axis -90 -45 -2.85299e-015   XYZ
    dof rx rz
    limits (-45.0 45.0)
           (-45.0 45.0)
  end
:hierarchy
  begin
    root lhipjoint rhipjoint lowerback
    lhipjoint lfemur
    lfemur ltibia
    ltibia lfoot
    lfoot ltoes
    rhipjoint rfemur
    rfemur rtibia
    rtibia rfoot
    rfoot rtoes
    lowerback upperback
    upperback thorax
    thorax lowerneck lclavicle rclavicle
    lowerneck upperneck
    upperneck head
    lclavicle lhumerus
    lhumerus lradius
    lradius lwrist
    lwrist lhand lthumb
    lhand lfingers
    rclavicle rhumerus
    rhumerus rradius
    rradius rwrist
    rwrist rhand rthumb
    rhand rfingers
  end

#!OML:ASF G:\JayActor3\Patient Classification 1\Patient 1\Session 5\male.ASF
:FULLY-SPECIFIED
:DEGREES
80
root -34.4612 17.3635 -6.21946 59.4483 -87.8552 -25.6535
lowerback 20.7714 -0.915039 1.41798
upperback 4.811 -1.1322 0.506452
thorax -6.38957 -0.679061 0.0405481
lowerneck 3.48938 0.959973 1.7223
upperneck -18.7073 1.22765 0.498896
head -6.23094 0.266125 -0.188711
rclavicle 2.98177e-015 1.35174e-014
rhumerus -28.1682 6.19485 -89.1937
rradius 40.2337
rwrist -7.75344
rhand -20.5231 -7.43547
rfingers 7.12502
rthumb 5.83484 -37.3351
lclavicle 2.98177e-015 1.35174e-014
lhumerus -30.1545 -8.34286 88.4763
lradius 40.4137
lwrist 27.25
lhand -19.4062 10.7493
lfingers 7.12502
lthumb 6.91303 40.6165
rfemur -55.9756 3.7821 20.4233
rtibia 33.5348
rfoot -14.7299 -17.1206
rtoes 10.8417
lfemur -46.3896 5.53245 -22.5371
ltibia 13.4079
lfoot -0.256013 1.51017
ltoes -5.71401
81
root -34.4566 17.3636 -6.21935 59.2868 -87.8421 -25.4953
lowerback 20.8321 -0.922796 1.41883
upperback 4.81403 -1.14169 0.5067
thorax -6.41823 -0.683989 0.0439044
lowerneck 3.47906 0.965815 1.72859
upperneck -18.7107 1.23286 0.481561
head -6.23 0.269389 -0.195543
rclavicle 1.90833e-014 3.07122e-014
rhumerus -28.155 6.16123 -89.1836
rradius 40.2503
rwrist -7.75237
rhand -20.5437 -7.42219
rfingers 7.12502
rthumb 5.81486 -37.3224
lclavicle 1.90833e-014 3.07122e-014
lhumerus -30.1676 -8.324 88.4748
lradius 40.4041
lwrist 27.2456
lhand -19.4042 10.7547
lfingers 7.12502
lthumb 6.91502 40.6218
rfemur -56.0029 3.73671 20.456
rtibia 33.5523
rfoot -14.6534 -17.0888
rtoes 10.7508
lfemur -46.4277 5.4469 -22.4731
ltibia 13.4703
lfoot -0.234162 1.58516
ltoes -5.67703
82
root -34.4511 17.3639 -6.21861 59.217 -87.815 -25.4415
lowerback 20.9135 -0.935903 1.44122
upperback 4.82062 -1.1535 0.509078
thorax -6.45422 -0.690522 0.0382612
lowerneck 3.4617 0.970976 1.73539
upperneck -18.7096 1.23746 0.467434
head -6.22646 0.272121 -0.201358
rclavicle 3.18055e-015 -3.08116e-015
rhumerus -28.1405 6.12535 -89.1733
rradius 40.271
rwrist -7.75469
rhand -20.5601 -7.41115
rfingers 7.12502
rthumb 5.79904 -37.3118
lclavicle 3.18055e-015 -3.08116e-015
lhumerus -30.1786 -8.30525 88.4739
lradius 40.3936
lwrist 27.2485
lhand -19.416 10.7347
lfingers 7.12502
lthumb 6.90361 40.6022
rfemur -56.0163 3.67452 20.512
rtibia 33.5673
rfoot -14.5613 -17.0573
rtoes 10.6246
lfemur -46.4633 5.35126 -22.3909
ltibia 13.5489
lfoot -0.21266 1.66652
ltoes -5.63693
83
root -34.4448 17.3646 -6.21726 59.2077 -87.7762 -25.4627
lowerback 21.0191 -0.952944 1.4842
upperback 4.82974 -1.16593 0.512528
thorax -6.50044 -0.697841 0.022678
lowerneck 3.4507 0.972856 1.7435
upperneck -18.7155 1.23845 0.457539
head -6.22629 0.272499 -0.205853
rclavicle 9.74045e-015 -3.04141e-014
rhumerus -28.128 6.08482 -89.1619
rradius 40.2965
rwrist -7.76353
rhand -20.5745 -7.40892
rfingers 7.12502
rthumb 5.78518 -37.3099
lclavicle 9.74045e-015 -3.04141e-014
lhumerus -30.1875 -8.28978 88.4755
lradius 40.377
lwrist 27.258
lhand -19.4311 10.7029
lfingers 7.12502
lthumb 6.88897 40.5708
rfemur -56.0145 3.5985 20.5867
rtibia 33.5813
rfoot -14.4617 -17.0138
rtoes 10.5166
lfemur -46.4932 5.24511 -22.2925
ltibia 13.6408
lfoot -0.187686 1.75014
ltoes -5.63588
84
root -34.4376 17.3656 -6.21526 59.3229 -87.7304 -25.6216
lowerback 21.1498 -0.972094 1.54209
upperback 4.84065 -1.17766 0.517057
thorax -6.55805 -0.705248 8.92748e-005
lowerneck 3.44744 0.971422 1.75394
upperneck -18.7308 1.23611 0.453266
head -6.2305 0.270406 -0.208779
rclavicle 4.57205e-015 7.7526e-015
rhumerus -28.1173 6.04236 -89.1492
rradius 40.3248
rwrist -7.77353
rhand -20.584 -7.40848
rfingers 7.12502
rthumb 5.77598 -37.3098
lclavicle 4.57205e-015 7.7526e-015
lhumerus -30.1941 -8.2744 88.4789
lradius 40.3525
lwrist 27.2761
lhand -19.4427 10.6719
lfingers 7.12502
lthumb 6.87785 40.5402
rfemur -56.0024 3.50461 20.6831
rtibia 33.5976
rfoot -14.3501 -16.9437
rtoes 10.4286
lfemur -46.514 5.12578 -22.1759
ltibia 13.7372
lfoot -0.157657 1.8522
ltoes -5.58789
85
root -34.4296 17.3667 -6.21302 59.33 -87.694 -25.675
lowerback 21.2946 -0.989137 1.5902
upperback 4.85197 -1.18861 0.51989
thorax -6.62243 -0.712253 -0.0186448
lowerneck 3.44942 0.966361 1.766
upperneck -18.7582 1.22934 0.45243
head -6.23952 0.265417 -0.21063
rclavicle 1.05356e-014 2.76311e-014
rhumerus -28.1066 5.99939 -89.1331
rradius 40.355
rwrist -7.78586
rhand -20.6013 -7.40249
rfingers 7.12502
rthumb 5.75925 -37.3042
lclavicle 1.05356e-014 2.76311e-014
lhumerus -30.1966 -8.26142 88.4857
lradius 40.3187
lwrist 27.3011
lhand -19.4533 10.6399
lfingers 7.12502
lthumb 6.86758 40.5085
rfemur -55.9961 3.40119 20.7747
rtibia 33.6213
rfoot -14.235 -16.8588
rtoes 10.3725
lfemur -46.5327 4.99424 -22.0626
ltibia 13.8303
lfoot -0.114904 1.96091
ltoes -5.59105
86
root -34.4207 17.3677 -6.21078 59.1417 -87.6819 -25.531
lowerback 21.4496 -1.00018 1.60639
upperback 4.86302 -1.19868 0.519083
thorax -6.69191 -0.718429 -0.023107
lowerneck 3.46321 0.959232 1.78263
upperneck -18.8043 1.2195 0.447678
head -6.25651 0.258419 -0.214352
rclavicle -2.0276e-014 -5.92378e-014
rhumerus -28.0963 5.96396 -89.1142
rradius 40.3883
rwrist -7.79852
rhand -20.6163 -7.40493
rfingers 7.12502
rthumb 5.7448 -37.307
lclavicle -2.0276e-014 -5.92378e-014
lhumerus -30.1953 -8.24857 88.4953
lradius 40.2766
lwrist 27.3308
lhand -19.4551 10.6198
lfingers 7.12502
lthumb 6.86581 40.4885
rfemur -56.0061 3.29883 20.8408
rtibia 33.6564
rfoot -14.1152 -16.7724
rtoes 10.305
lfemur -46.5512 4.84592 -21.962
ltibia 13.915
lfoot -0.0600898 2.08858
ltoes -5.63458
87
root -34.4106 17.3686 -6.20866 58.7483 -87.6933 -25.1762
lowerback 21.6122 -1.00576 1.58964
upperback 4.87302 -1.20893 0.514665
thorax -6.76593 -0.724209 -0.0124404
lowerneck 3.47724 0.952477 1.79969
upperneck -18.8582 1.20964 0.440918
head -6.27601 0.251277 -0.21878
rclavicle -1.05356e-014 -4.67144e-014
rhumerus -28.0842 5.93606 -89.0937
rradius 40.4211
rwrist -7.80562
rhand -20.6326 -7.40447
rfingers 7.12502
rthumb 5.7291 -37.307
lclavicle -1.05356e-014 -4.67144e-014
lhumerus -30.1922 -8.23739 88.5069
lradius 40.228
lwrist 27.3603
lhand -19.4583 10.5983
lfingers 7.12502
lthumb 6.8628 40.4671
rfemur -56.0375 3.20049 20.8792
rtibia 33.7048
rfoot -13.9918 -16.6914
rtoes 10.2411
lfemur -46.5727 4.689 -21.8805
ltibia 13.9887
lfoot 0.00818561 2.2258
ltoes -5.73159
88
root -34.3995 17.3691 -6.20669 58.1537 -87.7257 -24.6104
lowerback 21.7768 -1.00585 1.54057
upperback 4.8814 -1.21922 0.508525
thorax -6.84219 -0.729444 0.0149104
lowerneck 3.49753 0.947521 1.81503
upperneck -18.9266 1.20138 0.430531
head -6.3012 0.24492 -0.224207
rclavicle 7.15625e-015 1.66979e-014
rhumerus -28.0714 5.91446 -89.0702
rradius 40.4543
rwrist -7.8025
rhand -20.6423 -7.39919
rfingers 7.12502
rthumb 5.71973 -37.302
lclavicle 7.15625e-015 1.66979e-014
lhumerus -30.1888 -8.23014 88.5218
lradius 40.1783
lwrist 27.3876
lhand -19.4613 10.5777
lfingers 7.12502
lthumb 6.85987 40.4465
rfemur -56.093 3.11232 20.8875
rtibia 33.7649
rfoot -13.8599 -16.6612
rtoes 10.1135
lfemur -46.6031 4.52526 -21.8172
ltibia 14.0554
lfoot 0.0798031 2.37405
ltoes -5.85263
89
root -34.3877 17.3694 -6.20479 57.5353 -87.7675 -24.0158
lowerback 21.9457 -1.00351 1.4754
upperback 4.88944 -1.23006 0.502497
thorax -6.92067 -0.734653 0.0518648
lowerneck 3.52829 0.944014 1.82705
upperneck -19.0097 1.19539 0.422941
head -6.33291 0.239312 -0.228388
rclavicle 1.86858e-014 1.2921e-014
rhumerus -28.0574 5.89499 -89.0465
rradius 40.487
rwrist -7.78392
rhand -20.6412 -7.40078
rfingers 7.12502
rthumb 5.72074 -37.3036
lclavicle 1.86858e-014 1.2921e-014
lhumerus -30.1864 -8.22953 88.5374
lradius 40.1282
lwrist 27.4114
lhand -19.4528 10.5762
lfingers 7.12502
lthumb 6.86809 40.4448
rfemur -56.1631 3.03788 20.8787
rtibia 33.8333
rfoot -13.7242 -16.6744
rtoes 9.94604
lfemur -46.6397 4.36124 -21.7602
ltibia 14.1214
lfoot 0.1511 2.53044
ltoes -5.97497
90
root -34.3752 17.3694 -6.20259 57.0111 -87.8063 -23.5081
lowerback 22.1123 -1.00265 1.41351
upperback 4.89792 -1.24229 0.497762
thorax -6.99739 -0.74052 0.0887368
lowerneck 3.56234 0.941688 1.84443
upperneck -19.0988 1.19063 0.410119
head -6.36707 0.234161 -0.235227
rclavicle -2.5842e-015 -2.14687e-014
rhumerus -28.0393 5.87467 -89.0244
rradius 40.5133
rwrist -7.75139
rhand -20.6385 -7.39296
rfingers 7.12502
rthumb 5.72338 -37.2957
lclavicle -2.5842e-015 -2.14687e-014
lhumerus -30.1846 -8.23491 88.5511
lradius 40.0813
lwrist 27.4285
lhand -19.4334 10.5781
lfingers 7.12502
lthumb 6.8868 40.4461
rfemur -56.2459 2.96763 20.87
rtibia 33.9053
rfoot -13.5819 -16.7189
rtoes 9.73883
lfemur -46.6913 4.19909 -21.7016
ltibia 14.1957
lfoot 0.21342 2.69397
ltoes -6.07406
91
root -34.3625 17.3688 -6.20041 56.5832 -87.8523 -23.0855
lowerback 22.2697 -0.998165 1.34335
upperback 4.90638 -1.25209 0.492363
thorax -7.06912 -0.744995 0.128815
lowerneck 3.59648 0.939733 1.862
upperneck -19.1898 1.18632 0.397107
head -6.40187 0.229155 -0.242186
rclavicle -2.00773e-014 -2.42517e-014
rhumerus -28.0194 5.85607 -89.0044
rradius 40.5365
rwrist -7.71804
rhand -20.6451 -7.38482
rfingers 7.12502
rthumb 5.71704 -37.2877
lclavicle -2.00773e-014 -2.42517e-014
lhumerus -30.1822 -8.24775 88.5641
lradius 40.0379
lwrist 27.436
lhand -19.3953 10.5963
lfingers 7.12502
lthumb 6.92356 40.463
rfemur -56.3411 2.91916 20.8442
rtibia 33.9706
rfoot -13.4398 -16.788
rtoes 9.53028
lfemur -46.7741 4.03923 -21.6456
ltibia 14.3029
lfoot 0.256762 2.86911
ltoes -6.17695
92
root -34.3494 17.3678 -6.19751 56.4869 -87.8902 -22.9897
lowerback 22.4257 -0.994455 1.29294
upperback 4.91524 -1.25866 0.488229
thorax -7.13986 -0.748236 0.158104
lowerneck 3.62988 0.937089 1.88169
upperneck -19.2778 1.18117 0.383363
head -6.43565 0.223724 -0.249678
rclavicle 5.92378e-014 7.0171e-014
rhumerus -27.9986 5.83634 -88.9859
rradius 40.553
rwrist -7.6785
rhand -20.6634 -7.37434
rfingers 7.12502
rthumb 5.69929 -37.2777
lclavicle 5.92378e-014 7.0171e-014
lhumerus -30.1814 -8.27095 88.579
lradius 39.9941
lwrist 27.4251
lhand -19.3664 10.6089
lfingers 7.12502
lthumb 6.95151 40.4747
rfemur -56.4363 2.86753 20.8365
rtibia 34.0223
rfoot -13.298 -16.798
rtoes 9.3713
lfemur -46.8909 3.87616 -21.5718
ltibia 14.4594
lfoot 0.268601 3.06798
ltoes -6.20174
93
root -34.3356 17.3678 -6.19351 56.7333 -87.9138 -23.235
lowerback 22.5844 -0.994458 1.27442
upperback 4.92634 -1.263 0.485606
thorax -7.20994 -0.75102 0.170267
lowerneck 3.61681 0.946738 1.8745
upperneck -19.3241 1.1913 0.380483
head -6.44807 0.227722 -0.249968
rclavicle -2.5842e-015 1.19271e-014
rhumerus -27.9737 5.81513 -88.9664
rradius 40.5662
rwrist -7.65123
rhand -20.6796 -7.35832
rfingers 7.12502
rthumb 5.68369 -37.2621
lclavicle -2.5842e-015 1.19271e-014
lhumerus -30.1758 -8.30092 88.5952
lradius 39.9455
lwrist 27.3974
lhand -19.353 10.6097
lfingers 7.12502
lthumb 6.96443 40.4752
rfemur -56.5218 2.79968 20.8585
rtibia 34.0524
rfoot -13.1526 -16.728
rtoes 9.28979
lfemur -47.0155 3.67018 -21.4361
ltibia 14.676
lfoot 0.207507 3.3373
ltoes -5.86215
94
root -34.3207 17.3682 -6.18796 57.2924 -87.9356 -23.7857
lowerback 22.7418 -0.996512 1.27989
upperback 4.93759 -1.26485 0.48021
thorax -7.27966 -0.753074 0.165002
lowerneck 3.60715 0.952856 1.87904
upperneck -19.3733 1.19669 0.371557
head -6.46193 0.228967 -0.253857
rclavicle -3.97569e-016 1.78906e-015
rhumerus -27.9448 5.7943 -88.9465
rradius 40.5764
rwrist -7.63906
rhand -20.6818 -7.35136
rfingers 7.12502
rthumb 5.6816 -37.2552
lclavicle -3.97569e-016 1.78906e-015
lhumerus -30.1655 -8.33136 88.6103
lradius 39.8907
lwrist 27.3565
lhand -19.3579 10.5926
lfingers 7.12502
lthumb 6.95971 40.4582
rfemur -56.609 2.71441 20.8999
rtibia 34.0618
rfoot -12.9928 -16.5868
rtoes 9.23728
lfemur -47.1614 3.41709 -21.2491
ltibia 14.9531
lfoot 0.0816573 3.6794
ltoes -5.24917
